<?xml version="1.0" encoding="UTF-8" standalone="no"?>
<svg
   xmlns:dc="http://purl.org/dc/elements/1.1/"
   xmlns:cc="http://creativecommons.org/ns#"
   xmlns:rdf="http://www.w3.org/1999/02/22-rdf-syntax-ns#"
   xmlns:svg="http://www.w3.org/2000/svg"
   xmlns="http://www.w3.org/2000/svg"
   xmlns:sodipodi="http://sodipodi.sourceforge.net/DTD/sodipodi-0.dtd"
   xmlns:inkscape="http://www.inkscape.org/namespaces/inkscape"
   height="800"
   width="1200"
   viewBox="-28.06353 -11.68235 243.21726 70.0941"
   version="1.1"
   id="svg837"
   sodipodi:docname="astrazeneca.svg"
   inkscape:version="1.0.2 (e86c8708, 2021-01-15)">
  <metadata
     id="metadata843">
    <rdf:RDF>
      <cc:Work
         rdf:about="">
        <dc:format>image/svg+xml</dc:format>
        <dc:type
           rdf:resource="http://purl.org/dc/dcmitype/StillImage" />
      </cc:Work>
    </rdf:RDF>
  </metadata>
  <defs
     id="defs841" />
  <sodipodi:namedview
     pagecolor="#ffffff"
     bordercolor="#666666"
     borderopacity="1"
     objecttolerance="10"
     gridtolerance="10"
     guidetolerance="10"
     inkscape:pageopacity="0"
     inkscape:pageshadow="2"
     inkscape:window-width="1280"
     inkscape:window-height="643"
     id="namedview839"
     showgrid="false"
     inkscape:zoom="0.5925"
     inkscape:cx="864.13502"
     inkscape:cy="580.59072"
     inkscape:window-x="0"
     inkscape:window-y="25"
     inkscape:window-maximized="0"
     inkscape:current-layer="svg837"
     inkscape:document-rotation="0" />
  <path
     d="m -8.4636351,41.211215 3.582367,-15.65385 3.4172586,15.65385 z M 2.0172,56.986688 h 3.2847082 l -8.5251253,-37.68263 h -3.248664 l -8.9216159,37.68263 h 3.316102 l 2.6196269,-11.548597 h 8.92161617 z M 12.443387,43.972998 C 9.3993636,42.913941 6.2553456,41.757584 6.2553456,35.848564 c 0,-5.188635 2.7265984,-8.459365 6.8449834,-8.459365 2.663811,0 5.207861,1.596071 6.477561,5.497371 l -2.76962,1.859901 c -0.222082,-1.042218 -1.655725,-3.665539 -4.047458,-3.665539 -2.344061,0 -3.517254,2.232255 -3.517254,4.16513 0,2.713134 2.228951,3.843295 4.130012,4.458896 3.935836,1.274238 7.357746,2.894633 7.357746,8.8654 0,4.640395 -2.56149,9.000122 -7.454253,9.000122 -3.6021327,0 -6.1612983,-1.938488 -7.3926278,-5.989479 l 3.1591335,-0.886914 c 0.7929809,2.219157 2.2266253,3.180916 4.3625573,3.180916 2.648696,0 4.197451,-1.626009 4.197451,-4.704013 0.0011,-3.255761 -2.540563,-4.286753 -5.16019,-5.197992 z M 27.291431,28.257402 h 3.234711 v 4.006083 h -3.234711 v 16.301259 c 0,3.381127 0,4.83125 1.277839,4.83125 0.563923,0 1.355741,-0.364869 1.956872,-0.66425 v 3.96679 c -0.526716,0.119753 -1.769673,0.482752 -2.898683,0.482752 -3.459117,0 -3.459117,-2.705651 -3.42191,-6.44042 V 32.263485 h -2.821942 v -4.006083 h 2.821942 v -6.844584 l 3.085882,-2.065724 z m 8.918128,0.07297 v 5.130631 c 1.69177,-5.413171 4.890436,-5.534794 6.09386,-5.594671 v 4.964101 c -2.933564,0.03181 -4.371859,0.999181 -5.340412,3.538302 -0.795306,2.073208 -0.753448,4.986553 -0.753448,7.447085 V 56.986688 H 33.22251 V 28.330376 Z m 27.379932,24.13567 h 13.585321 v 4.520642 H 59.972243 V 52.09182 L 73.290135,23.95568 H 59.982707 v -4.646009 h 16.859564 v 4.700272 z M 98.88993,28.528715 v 4.163258 c 1.6627,-4.677818 4.49511,-5.102564 5.55203,-5.102564 2.26615,0 4.98113,1.824349 5.84736,6.552688 0.30347,1.691499 0.30347,3.444744 0.30347,5.864112 v 16.980479 h -2.97891 V 40.792082 c 0,-2.903989 0,-3.747867 -0.18952,-4.717111 -0.52788,-2.718748 -2.18942,-3.927496 -3.81375,-3.927496 -1.32086,0 -2.45452,0.66425 -3.39982,2.174249 -1.322023,2.116246 -1.322023,4.288624 -1.322023,6.410482 V 56.986688 H 95.900555 V 28.528715 Z m 46.06498,23.385347 c -1.11506,2.817918 -3.14053,5.654547 -6.78685,5.654547 -6.29269,0 -8.6693,-7.804472 -8.6693,-14.815586 0,-8.100109 2.73822,-15.44054 8.40652,-15.44054 2.22314,0 5.33693,1.077769 7.0601,5.697582 l -2.79986,1.880483 c -0.52904,-1.876742 -1.66851,-4.045378 -4.14745,-4.045378 -4.91136,0 -5.19855,9.005735 -5.19855,11.546726 0,9.441708 3.37075,11.483107 5.38459,11.483107 2.30569,0 3.48353,-1.779441 4.1056,-3.740383 z M 81.467605,39.72554 h 9.442519 c -0.263939,-7.495735 -2.94868,-8.762488 -4.739281,-8.762488 -2.555678,0.0018 -4.366047,3.019998 -4.703238,8.762488 z m 11.900527,11.81804 c -1.01855,2.78985 -2.984725,5.991348 -6.861261,5.991348 -5.255533,0 -8.278628,-5.748102 -8.278628,-15.384407 0,-10.764595 4.412556,-14.879204 8.168169,-14.879204 3.264942,0 6.395007,2.90399 7.447276,10.096603 0.339517,2.419367 0.339517,4.601102 0.339517,5.811721 H 81.393191 c -0.07441,4.786343 1.17203,10.843182 5.377619,10.7253 1.716188,-0.04677 2.924263,-1.300433 3.695152,-3.265117 z M 115.4344,39.72554 h 9.44367 c -0.26277,-7.495735 -2.94751,-8.762488 -4.73928,-8.762488 -2.55335,0.0018 -4.36487,3.019998 -4.70439,8.762488 z m 11.90285,11.81804 c -1.01856,2.78985 -2.98357,5.991348 -6.86011,5.991348 -5.25552,0 -8.27978,-5.748102 -8.27978,-15.384407 0,-10.764595 4.41256,-14.879204 8.16701,-14.879204 3.2661,0 6.39384,2.90399 7.44727,10.096603 0.33836,2.419367 0.33836,4.601102 0.33836,5.811721 h -12.79002 c -0.0756,4.786343 1.17552,10.843182 5.37761,10.7253 1.7162,-0.04677 2.92776,-1.300433 3.69633,-3.265117 z m 33.94702,5.473046 -3.10681,0.01871 c 0,0 -0.2686,-2.018946 -0.3558,-4.223134 -0.90228,1.508129 -2.5766,4.627297 -5.96015,4.627297 -3.46027,0 -6.02758,-3.302539 -6.02758,-8.141274 0,-1.517484 0.26394,-3.027483 0.79182,-4.303592 1.01972,-2.42311 2.90683,-4.361597 8.2077,-5.025848 l 2.8173,-0.362998 v -0.727869 c 0,-2.967607 0,-7.931708 -3.97189,-7.931708 -2.49871,0 -3.34981,1.949715 -3.63817,3.710445 l -2.75102,-1.848673 c 0.043,-0.153433 0.093,-0.310608 0.14534,-0.469653 1.05692,-3.147237 3.13007,-5.085724 6.12874,-5.085724 1.65108,0 3.78817,0.667992 5.18112,2.42311 1.98246,2.417495 1.93478,7.179514 1.93478,7.179514 l 0.11976,14.695833 c 0,0.0038 0.10581,4.269913 0.48486,5.465562 z m -4.08466,-7.899899 c 0.45114,-1.573618 0.4895,-2.239739 0.4895,-6.423579 -1.16273,0.303123 -2.73589,0.66612 -4.66138,1.334113 -3.30912,1.148873 -3.87305,3.15472 -3.87305,5.151213 0,2.301487 1.12902,4.241846 3.34634,4.241846 2.06966,0 3.83584,-1.332243 4.69859,-4.303593 z m -99.336557,7.899899 -3.106811,0.01871 c 0,0 -0.269753,-2.018946 -0.355795,-4.223134 -0.902277,1.508129 -2.574281,4.627297 -5.958984,4.627297 -3.462605,0 -6.028747,-3.302539 -6.028747,-8.141274 0,-1.517484 0.263939,-3.027483 0.79298,-4.303592 1.019714,-2.42311 2.905659,-4.361597 8.204214,-5.025848 l 2.820779,-0.362998 v -0.727869 c 0,-2.967607 0,-7.931708 -3.974206,-7.931708 -2.498704,0 -3.347496,1.949715 -3.638178,3.710445 L 43.86729,32.807981 c 0.04535,-0.153433 0.09302,-0.310608 0.146503,-0.469653 1.056921,-3.147237 3.131228,-5.085724 6.12758,-5.085724 1.649911,0 3.789331,0.667992 5.181118,2.42311 1.982452,2.417495 1.93478,7.179514 1.93478,7.179514 l 0.119762,14.695833 c 0,0.0038 0.105807,4.269913 0.48602,5.465562 z m -4.084666,-7.899899 c 0.453465,-1.573618 0.488347,-2.239739 0.488347,-6.423579 -1.160403,0.303123 -2.735901,0.66612 -4.659054,1.334113 -3.3068,1.148873 -3.871886,3.15472 -3.871886,5.151213 0,2.301487 1.126684,4.241846 3.344007,4.241846 2.068495,0 3.834679,-1.332243 4.698586,-4.303593 z"
     fill="#8A0051"
     clip-rule="evenodd"
     fill-rule="evenodd"
     id="path833"
     style="fill:#eef3f9;fill-opacity:1;stroke-width:1.475" />
  <path
     d="m 202.11581,17.322534 c -0.0117,-0.175886 -0.0245,-0.351771 -0.0512,-0.522044 -0.0559,-0.34803 -0.11511,-0.696059 -0.19767,-1.02912 -0.0895,-0.353643 -0.19999,-0.69606 -0.31742,-1.027249 -0.1314,-0.36487 -0.27789,-0.71477 -0.43254,-1.057187 -0.0895,-0.20021 -0.19301,-0.387322 -0.29998,-0.56508 -0.11976,-0.19834 -0.24301,-0.394808 -0.37789,-0.566952 -0.30464,-0.389193 -0.60694,-0.785873 -0.93948,-1.11332 -0.72554,-0.716641 -1.44877,-1.4613505 -2.22779,-2.0133325 -0.94181,-0.666122 -1.85223,-1.4557374 -2.8231,-1.9983648 L 187.90606,3.773703 c 0,-2.0021067 0.036,-4.00421225 0,-6.0044469 -0.0546,-2.9694797 -0.12907,-5.9408293 -0.27209,-8.9028231 -0.0999,-2.061983 -0.25347,-4.118351 -0.45346,-6.161622 -0.1558,-1.594201 -0.39184,-3.165947 -0.6116,-4.739565 -0.05,-0.361128 -0.12557,-0.711028 -0.19999,-1.059058 a 8.7216269,14.035324 0 0 0 -0.21859,-0.933693 c -0.0721,-0.276927 -0.15116,-0.550111 -0.23604,-0.819553 a 5.8666632,9.4409592 0 0 0 -0.25109,-0.707287 5.1853043,8.3444787 0 0 0 -0.26161,-0.606245 4.0910604,6.5835609 0 0 0 -0.26626,-0.510817 3.8870015,6.2551781 0 0 0 -0.26976,-0.428489 3.465745,5.5772687 0 0 0 -0.2686,-0.348029 2.9767014,4.7902727 0 0 0 -0.26626,-0.278798 c -0.0849,-0.07859 -0.17092,-0.155303 -0.26161,-0.215179 -0.15813,-0.104789 -0.31859,-0.203954 -0.48253,-0.278798 -0.13604,-0.06175 -0.27674,-0.09542 -0.41626,-0.127238 -0.10465,-0.02432 -0.21045,-0.03555 -0.3151,-0.0393 -0.17906,-0.0056 -0.36044,-0.01127 -0.53835,0.0093 -0.19068,0.02245 -0.38137,0.05987 -0.56857,0.119753 a 4.7439325,7.6341989 0 0 0 -0.59415,0.24886 c -0.2093,0.112266 -0.41277,0.24886 -0.60928,0.404163 -0.21975,0.174015 -0.43021,0.376097 -0.63833,0.585663 -0.21975,0.222664 -0.43718,0.454684 -0.64532,0.705415 -0.36392,0.441586 -0.736,0.870074 -1.06738,1.371536 -1.3662,2.065724 -2.70799,4.172613 -4.01955,6.32441 -0.69997,1.147001 -1.37784,2.333295 -2.01153,3.571981 -2.52079,4.91171 -5.02996,9.8383876 -7.45424,14.87359047 -1.07669,2.23412623 -2.04525,4.59735983 -3.04171,6.92129973 -0.24881,0.5819199 -0.48137,1.1825523 -0.69647,1.798153 -0.37323,1.0758981 -0.72322,2.1723788 -1.06506,3.2744728 -0.0884,0.286282 -0.15813,0.589404 -0.22556,0.890655 -0.0651,0.288154 -0.12442,0.580051 -0.17208,0.875689 -0.0442,0.278798 -0.0826,0.563208 -0.10232,0.849491 -0.0174,0.26383 -0.0197,0.5314 -0.009,0.795229 0.006,0.132851 0.0303,0.263829 0.057,0.389194 0.029,0.136593 0.0674,0.267572 0.11162,0.392937 0.0488,0.136593 0.10581,0.2657 0.1651,0.389195 0.0651,0.134721 0.13139,0.265699 0.2058,0.385452 0.16163,0.256345 0.32673,0.507076 0.5023,0.739095 0.18023,0.239505 0.36626,0.467782 0.5616,0.673606 0.34068,0.359256 0.69299,0.694188 1.04297,1.023507 0.15348,0.144077 0.3151,0.26757 0.47091,0.398549 0.0559,0.04491 -0.11047,-0.09356 -0.16512,-0.142205 -0.007,-0.0038 -0.0244,-0.02059 -0.0186,-0.01684 0.009,0.0038 0.0186,0.01497 0.0267,0.02245 0.086,0.07297 0.17208,0.144077 0.25928,0.21705 2.15454,1.811252 4.31722,3.596307 6.46128,5.435625 2.15571,1.848674 4.31024,3.702961 6.4392,5.62835 l 4.78695,4.327918 c -1.6627,2.024559 -3.35679,3.979887 -4.98462,6.069936 -0.62205,0.798971 -1.19993,1.684014 -1.76385,2.58777 -0.45812,0.735352 -0.88949,1.515612 -1.29645,2.322068 -0.32557,0.645538 -0.62206,1.328501 -0.89878,2.030173 -0.21743,0.546369 -0.40812,1.124548 -0.57904,1.71021 -0.13023,0.445328 -0.23487,0.909367 -0.32673,1.37902 -0.0663,0.32932 -0.1093,0.667993 -0.14651,1.008538 -0.0221,0.203954 -0.0267,0.415391 -0.0338,0.624956 -0.002,0.0711 0.006,0.142206 0.006,0.21331 0.002,0.188983 -0.003,0.376096 0.003,0.563208 0.006,0.175887 0.0186,0.351773 0.036,0.522046 0.0163,0.166529 0.0384,0.331188 0.0663,0.493977 0.0256,0.153432 0.0593,0.306865 0.0953,0.456555 0.036,0.144077 0.0767,0.286282 0.12092,0.424746 0.0442,0.134721 0.0895,0.271313 0.14651,0.392937 0.11045,0.243246 0.22207,0.484621 0.35347,0.697929 0.13139,0.21331 0.27556,0.407907 0.42672,0.585663 0.15115,0.179629 0.31393,0.336803 0.47904,0.482752 0.16744,0.145947 0.34068,0.273184 0.51741,0.391064 0.17558,0.117882 0.35231,0.243248 0.53835,0.308736 0.66856,0.237634 1.34179,0.454685 2.02082,0.602504 0.33254,0.07297 0.67089,0.102911 1.0046,0.05987 1.15691,-0.145948 2.31266,-0.334931 3.45912,-0.624957 1.3383,-0.338673 2.66613,-0.791486 3.99048,-1.257397 1.56154,-0.550111 3.11843,-1.132031 4.66487,-1.785054 1.09296,-0.46217 2.20453,-0.871946 3.25099,-1.560521 0.82437,-0.540756 1.65688,-1.057187 2.47428,-1.624138 0.18371,-0.125366 0.35696,-0.290025 0.52904,-0.452813 0.15581,-0.145948 0.30929,-0.304994 0.4558,-0.473395 0.12905,-0.14782 0.25696,-0.304994 0.37207,-0.480881 0.0977,-0.147818 0.18719,-0.312477 0.26626,-0.488363 0.0686,-0.14782 0.12558,-0.312479 0.17325,-0.482751 0.0418,-0.14969 0.0733,-0.310607 0.0953,-0.473395 0.021,-0.147819 0.0302,-0.303122 0.0302,-0.454684 0,-0.14782 -0.0117,-0.295638 -0.0279,-0.439715 -0.0186,-0.140335 -0.0442,-0.280669 -0.0767,-0.417261 a 1.6553767,2.6639238 0 0 0 -0.1186,-0.39668 2.5091682,4.0378924 0 0 0 -0.14883,-0.370482 2.5182375,4.0524872 0 0 0 -0.17208,-0.344288 c -0.11976,-0.202081 -0.24185,-0.406034 -0.37092,-0.589405 -0.11278,-0.160916 -0.2337,-0.304993 -0.35579,-0.443457 -0.11975,-0.136592 -0.24417,-0.263829 -0.36858,-0.385452 -0.85229,-0.827038 -1.70108,-1.670917 -2.55917,-2.484858 l -3.59399,-3.414806 c 2.18244,-2.381945 4.38465,-4.718982 6.54733,-7.151448 0.92436,-1.038476 1.83361,-2.112503 2.71031,-3.252019 0.75112,-0.976729 1.4662,-2.02456 2.16616,-3.091102 0.33371,-0.507076 0.6302,-1.070285 0.93251,-1.626009 0.13721,-0.252603 0.26394,-0.522045 0.38371,-0.7971 0.11045,-0.24886 0.22207,-0.499591 0.30928,-0.772777 0.28137,-0.89814 0.55811,-1.801895 0.79299,-2.733717 0.0942,-0.379838 0.1337,-0.789615 0.18719,-1.190036 0.0245,-0.185242 0.0338,-0.376097 0.0431,-0.56508 0.009,-0.1815 0.0128,-0.36487 0.0117,-0.546369 -0.006,-0.175887 -0.0128,-0.355515 -0.0256,-0.531401 z M 175.28934,-6.3135432 c 1.21854,-2.0339156 2.4394,-4.0640898 3.67887,-6.0661948 0.22557,-0.36487 0.47672,-0.692317 0.71857,-1.030991 0.0837,-0.117882 0.17325,-0.230148 0.26277,-0.340545 0.0686,-0.0842 0.13604,-0.172144 0.21046,-0.24699 a 1.1004064,1.7708348 0 0 1 0.1651,-0.134721 c 0.0605,-0.0393 0.12093,-0.07859 0.18604,-0.09542 0.0674,-0.01871 0.13604,-0.01684 0.20581,-0.01127 0.0349,0.0018 0.0698,0.01684 0.10347,0.03555 0.0349,0.01684 0.0709,0.04304 0.10349,0.07297 0.0349,0.03181 0.0698,0.06923 0.0999,0.1104 0.036,0.04677 0.0698,0.09917 0.0999,0.155303 0.0349,0.06362 0.0674,0.13098 0.0954,0.202082 0.0325,0.08234 0.0674,0.166531 0.0884,0.258216 0.0593,0.246989 0.11278,0.499591 0.15231,0.757806 0.057,0.368612 0.10118,0.742837 0.13721,1.120806 0.0884,0.920594 0.16976,1.8430601 0.23371,2.7673966 0.0837,1.1975217 0.14417,2.3987854 0.21277,3.5981781 l 0.36975,6.3861559 -4.42185,-1.63723572 -4.12653,-1.09273848 -0.99878,-0.1234946 -0.32441,-0.013099 c 0.91507,-1.5586486 1.82316,-3.1285249 2.74753,-4.672204 z m -2.77311,8.8803688 0.0163,-0.039296 0.0232,-0.020587 0.0338,-0.00558 0.0535,0.013099 0.15464,0.071104 0.39998,0.2469891 0.54416,0.3891938 c 1.40457,0.9673731 2.80914,1.9347461 4.21488,2.8983762 0.93136,0.639926 1.86386,1.274238 2.79404,1.9141628 l 1.84061,1.2648823 0.16394,0.1178807 c 0.0988,2.3407805 0.21975,4.6796905 0.2965,7.0223415 0.0605,1.829962 0.0849,3.663666 0.11277,5.4955 0.003,0.23202 -0.008,0.462168 -0.0186,0.692317 -0.005,0.129107 -0.0128,0.260087 -0.0244,0.389194 -0.0128,0.129108 -0.0279,0.258216 -0.0512,0.38171 -0.0232,0.121624 -0.0488,0.245118 -0.0872,0.357385 -0.036,0.110399 -0.086,0.211437 -0.13604,0.308736 -0.0245,0.04865 -0.0581,0.09169 -0.0895,0.130979 a 0.97924999,1.5758633 0 0 1 -0.1058,0.112266 0.89646372,1.442639 0 0 1 -0.12326,0.08607 1.0006442,1.6102921 0 0 1 -0.14301,0.06362 1.3359751,2.1499251 0 0 1 -0.17906,0.02994 c -0.0628,0.0018 -0.12558,0 -0.18836,-0.0131 a 1.5450337,2.4863538 0 0 1 -0.1965,-0.06175 c -0.0698,-0.02806 -0.13836,-0.058 -0.20348,-0.101044 -0.14302,-0.0973 -0.28604,-0.200211 -0.42091,-0.323706 a 4.6253342,7.4433439 0 0 1 -0.44416,-0.467781 c -0.15813,-0.187113 -0.30929,-0.387324 -0.45579,-0.595018 -0.16046,-0.228278 -0.31743,-0.460298 -0.46277,-0.709158 -0.31859,-0.54824 -0.63369,-1.105836 -0.92902,-1.687757 -0.53369,-1.049702 -1.08831,-2.080692 -1.55689,-3.207112 -0.64648,-1.553034 -1.30924,-3.087359 -1.93827,-4.659106 -0.37556,-0.937434 -0.76043,-1.871127 -1.0732,-2.8703094 l -1.41969,-4.5262563 -0.3058,-1.4426388 -0.0698,-0.4284886 -0.0418,-0.413519 -0.003,-0.2993802 z m 15.68753,40.1188374 c 0.38254,0.389195 0.7674,0.772776 1.14412,1.173196 0.48719,0.516432 0.97553,1.029121 1.4476,1.579232 0.33952,0.394808 0.66392,0.821425 0.98483,1.257398 0.14185,0.194597 0.27557,0.404163 0.40347,0.624956 0.10349,0.1815 0.19418,0.379838 0.28603,0.578178 0.006,0.0131 0.007,0.02994 0.006,0.04491 0,0.03555 -0.002,0.06922 -0.009,0.102911 -0.003,0.02245 -0.0139,0.04116 -0.0232,0.05614 a 0.16720037,0.26906809 0 0 1 -0.0453,0.05052 0.28475222,0.45823904 0 0 1 -0.0698,0.03369 0.77216804,1.2426156 0 0 1 -0.10232,0.02245 c -1.86501,0.224536 -3.73235,0.430359 -5.59621,0.666122 l -7.28682,0.920594 -0.22674,0.02245 0.10466,-0.181499 0.45927,-0.653023 c 0.9453,-1.130162 1.8592,-2.329554 2.83357,-3.392354 l 4.12653,-4.501932 c 0.51973,0.5314 1.0418,1.062801 1.56386,1.596071 z m 5.61249,-23.085966 a 1.1363346,1.8286526 0 0 1 -0.0767,0.314348 1.1441249,1.8411891 0 0 1 -0.13487,0.327447 c -0.12441,0.237634 -0.25581,0.469653 -0.39766,0.681091 -0.30463,0.4472 -0.60578,0.905626 -0.94181,1.289207 -1.15808,1.321015 -2.30336,2.67384 -3.47539,3.963047 -0.80694,0.888786 -1.63945,1.719566 -2.46266,2.570929 l -4.78695,4.949131 c -0.67787,-0.624957 -1.35575,-1.251784 -2.03362,-1.874869 l -8.6693,-7.974744 c -1.95803,-1.882354 -3.9277,-3.732899 -5.87294,-5.648934 -0.36626,-0.361127 -0.71043,-0.78026 -1.06041,-1.18068 -0.11162,-0.127237 -0.2151,-0.273185 -0.32208,-0.407906 -0.0338,-0.04116 -0.0709,-0.07859 -0.10232,-0.123495 -0.0733,-0.108521 -0.14766,-0.220793 -0.21627,-0.340544 -0.0418,-0.07485 -0.0767,-0.155304 -0.11162,-0.239505 -0.0338,-0.08795 -0.0674,-0.179628 -0.0907,-0.276927 -0.0245,-0.09917 -0.0466,-0.203952 -0.0557,-0.312479 a 0.70926442,1.1413875 0 0 1 -10e-4,-0.338673 c 0.0104,-0.123495 0.0314,-0.243246 0.0581,-0.359256 0.0279,-0.125366 0.0628,-0.24886 0.10581,-0.362999 0.086,-0.235763 0.17789,-0.469653 0.28254,-0.688575 a 5.2322785,8.4200722 0 0 1 0.38719,-0.716641 c 1.11971,-1.854287 2.25685,-3.6823791 3.38238,-5.5291813 l 3.03472,-4.9828118 0.14418,0.8045849 0.36858,1.4145718 0.0245,0.086069 c 0.80228,2.2378681 1.55573,4.5225145 2.40685,6.7136034 0.97785,2.518537 2.0278,4.964101 3.07657,7.405921 0.49301,1.143259 1.00693,2.264065 1.54876,3.351189 0.4709,0.94492 0.9581,1.872999 1.48713,2.737459 0.46394,0.757807 0.97205,1.450124 1.48829,2.118117 0.25581,0.329319 0.543,0.595018 0.82438,0.866331 0.13255,0.13098 0.27557,0.235763 0.41858,0.338674 0.13604,0.09542 0.2744,0.179629 0.4151,0.252603 0.13719,0.0711 0.27672,0.129108 0.41858,0.175886 0.1279,0.04304 0.25929,0.07671 0.38951,0.09542 0.1186,0.01684 0.23836,0.02059 0.35813,0.0131 0.10929,-0.0038 0.21975,-0.02059 0.32904,-0.04865 0.10119,-0.02432 0.20232,-0.06175 0.29999,-0.106655 0.093,-0.04116 0.18371,-0.09356 0.27324,-0.155304 0.0825,-0.05426 0.16395,-0.119752 0.24301,-0.190855 0.0744,-0.06736 0.14999,-0.136592 0.21859,-0.220793 0.12558,-0.153432 0.25115,-0.312479 0.3651,-0.486493 0.0977,-0.14969 0.1872,-0.314349 0.26859,-0.486493 0.10464,-0.218922 0.19882,-0.450941 0.28604,-0.688575 0.1058,-0.288153 0.2058,-0.585663 0.293,-0.890657 0.0977,-0.340544 0.18837,-0.686703 0.26161,-1.042217 0.15116,-0.740966 0.29534,-1.487547 0.41045,-2.247224 0.15464,-1.025378 0.32556,-2.052626 0.39416,-3.104199 l 0.393,-6.083035 c 0.89647,0.671734 1.81386,1.281722 2.69055,2.017075 0.85578,0.718513 1.6755,1.549293 2.50685,2.342651 0.0977,0.09356 0.18836,0.202082 0.27557,0.318091 0.12325,0.164659 0.24185,0.338674 0.35463,0.523917 0.0593,0.0973 0.11162,0.207694 0.15813,0.319962 0.0453,0.110399 0.0872,0.228278 0.1186,0.349901 0.0291,0.119752 0.0488,0.248859 0.0639,0.376097 0.007,0.06361 0.005,0.129107 0.002,0.194597 a 0.38986288,0.62738893 0 0 1 -0.0139,0.19834 z"
     fill="#EFAB00"
     clip-rule="evenodd"
     fill-rule="evenodd"
     id="path835"
     style="fill:#eef3f9;fill-opacity:1;stroke-width:1.475" />
</svg>
