<?xml version="1.0" encoding="UTF-8" standalone="no"?>
<svg
   xmlns:dc="http://purl.org/dc/elements/1.1/"
   xmlns:cc="http://creativecommons.org/ns#"
   xmlns:rdf="http://www.w3.org/1999/02/22-rdf-syntax-ns#"
   xmlns:svg="http://www.w3.org/2000/svg"
   xmlns="http://www.w3.org/2000/svg"
   xmlns:sodipodi="http://sodipodi.sourceforge.net/DTD/sodipodi-0.dtd"
   xmlns:inkscape="http://www.inkscape.org/namespaces/inkscape"
   height="1024"
   viewBox="-206.734 215.02 1013.677 409.434"
   width="2500"
   version="1.1"
   id="svg853"
   sodipodi:docname="pfizer.svg"
   inkscape:version="1.0.2 (e86c8708, 2021-01-15)">
  <metadata
     id="metadata859">
    <rdf:RDF>
      <cc:Work
         rdf:about="">
        <dc:format>image/svg+xml</dc:format>
        <dc:type
           rdf:resource="http://purl.org/dc/dcmitype/StillImage" />
      </cc:Work>
    </rdf:RDF>
  </metadata>
  <defs
     id="defs857" />
  <sodipodi:namedview
     pagecolor="#ffffff"
     bordercolor="#666666"
     borderopacity="1"
     objecttolerance="10"
     gridtolerance="10"
     guidetolerance="10"
     inkscape:pageopacity="0"
     inkscape:pageshadow="2"
     inkscape:window-width="987"
     inkscape:window-height="556"
     id="namedview855"
     showgrid="false"
     inkscape:zoom="0.2844"
     inkscape:cx="573.13643"
     inkscape:cy="512"
     inkscape:window-x="0"
     inkscape:window-y="25"
     inkscape:window-maximized="0"
     inkscape:current-layer="svg853" />
  <path
     d="m-182.796 378.85c11.8-43.139 60.942-53.405 106.187-54.674 37.194-1.042 78.666 3.876 78.666 3.876l-19.486 71.243s-41.472-4.918-78.666-3.875c-45.245 1.268-94.388 11.534-106.187 54.673z"
     fill="#0190ff"
     id="path833"
     style="fill:#eef3f9;fill-opacity:1" />
  <g
     fill="#2b01be"
     id="g841"
     style="fill:#eef3f9;fill-opacity:1">
    <path
       d="m 232.72,343.7 -46.05,168.365 h 38.699 l 17.052,-62.347 h 33.616 c 37.092,0 61.706,-20.473 68.362,-48.929 6.215,-26.57 -9.303,-57.091 -50.867,-57.091 H 232.72 Z M 266,363.51 h 14.88 c 15.578,0 27.938,12.47 24.954,34.172 -2.766,20.117 -24.612,32.176 -43.659,32.176 h -14.322 z m 366.978,32.608 c -32.539,0 -56.011,27.992 -61.644,55.968 -5.413,26.883 10.003,62.608 52.446,62.608 30.167,0 45.339,-13.284 45.339,-13.284 l -6.944,-17.138 c 0,0 -12.682,10.323 -30.354,10.323 -17.67,0 -28.757,-13.95 -26.305,-36.18 h 72.163 c 5.159,-13.09 7.984,-62.297 -44.7,-62.297 z m -0.139,18.583 c 20.183,0 15.59,26.65 15.59,26.65 l -40.431,-0.095 c 0,0 6.705,-26.556 24.842,-26.556 z M 359.93,391.87 296.305,624.454 h 37.12 l 56.413,-206.23 h 38.555 l -25.667,93.841 h 37.12 l 30.782,-112.54 h -75.674 c 3.878,-14.184 8.012,-29.294 11.382,-41.616 6.224,-22.755 16.392,-39.28 31.178,-38.724 16.34,0.614 8.023,11.343 5.786,19.524 -3.096,11.318 5.262,22.7 19.906,22.7 31.808,0 39.653,-58.409 -19.912,-58.409 -59.564,0 -74.824,57.647 -83.364,88.87 z"
       id="path835"
       style="fill:#eef3f9;fill-opacity:1" />
    <path
       d="m 484.615,399.527 -5.115,18.7 h 47.052 l -73.97,93.838 h 104.456 l 5.114,-18.699 h -53.08 l 73.971,-93.839 z m 292.203,-1.896 c -24.202,0 -38.47,24.992 -38.47,24.992 l 6.315,-23.096 h -37.12 l -30.781,112.538 h 37.12 c 0,0 8.94,-32.88 13.49,-49.296 7.022,-25.66 21.345,-41.726 28.231,-42.384 7.958,-0.76 7.197,18.416 22.717,18.416 23.545,0 28.623,-41.17 -1.498,-41.17 z M 99.56,512.327 C -33.56,504.026 -188.257,435.361 -182.796,378.85 L -201.162,446 c -5.572,57.658 137.931,126.112 281.236,137.57 z"
       id="path837"
       style="fill:#eef3f9;fill-opacity:1" />
    <path
       d="m 147.937,419.74 c -11.8,43.14 -60.942,53.406 -106.187,54.674 -37.194,1.043 -78.665,-3.876 -78.665,-3.876 l 19.486,-71.243 c 0,0 41.47,4.918 78.666,3.876 45.244,-1.269 94.387,-11.535 106.186,-54.674 z"
       id="path839"
       style="fill:#eef3f9;fill-opacity:1" />
  </g>
  <path
     d="m-134.42 286.263c133.12 8.301 287.817 76.966 282.357 133.478l18.366-67.151c5.571-57.658-137.931-126.112-281.236-137.57z"
     fill="#0190ff"
     id="path843"
     style="fill:#eef3f9;fill-opacity:1" />
  <path
     d="m-182.796 378.85c11.8-43.139 60.942-53.405 106.187-54.674 37.194-1.042 78.666 3.876 78.666 3.876l-19.486 71.243s-41.472-4.918-78.666-3.875c-45.245 1.268-94.388 11.534-106.187 54.673z"
     fill="#0190ff"
     id="path845"
     style="fill:#eef3f9;fill-opacity:1" />
  <path
     d="m99.56 512.327c-133.12-8.301-287.817-76.966-282.356-133.477l-18.366 67.15c-5.572 57.658 137.931 126.112 281.236 137.57z"
     fill="#2b01be"
     id="path847"
     style="fill:#eef3f9;fill-opacity:1" />
  <path
     d="m147.937 419.74c-11.8 43.14-60.942 53.406-106.187 54.674-37.194 1.043-78.665-3.876-78.665-3.876l19.486-71.243s41.47 4.918 78.666 3.876c45.244-1.269 94.387-11.535 106.186-54.674z"
     fill="#2b01be"
     id="path849"
     style="fill:#eef3f9;fill-opacity:1" />
  <path
     d="m-134.42 286.263c133.12 8.301 287.817 76.966 282.357 133.478l18.366-67.151c5.571-57.658-137.931-126.112-281.236-137.57z"
     fill="#0190ff"
     id="path851"
     style="fill:#eef3f9;fill-opacity:1" />
</svg>
